<?xml version="1.0" encoding="UTF-8"?>
<svg id="Layer_1" data-name="Layer 1" xmlns="http://www.w3.org/2000/svg" viewBox="0 0 312.91 76.76">
  <g>
    <path d="M105.86,30.33c-.99-.57-2.19-.85-3.62-.85-.95,0-1.89.2-2.83.6-.94.4-1.77,1-2.5,1.81-.73.8-1.32,1.81-1.78,3.01-.45,1.21-.68,2.62-.68,4.25,0,1.24.17,2.38.51,3.43s.83,1.96,1.47,2.74c.64.77,1.42,1.38,2.35,1.81.93.43,1.99.65,3.18.65.27,0,.57-.02.91-.05s.67-.07.99-.11c.32-.04.61-.1.88-.17.27-.07.46-.15.59-.23.04-.25.07-.56.08-.93.01-.37.02-.78.02-1.24,0-1.67-.03-2.9-.09-3.69-.06-.79-.1-1.33-.12-1.62.21.04.48.08.82.11.34.03.83.05,1.47.05.74,0,1.29-.02,1.65-.05.36-.03.64-.07.85-.11-.04.17-.08.43-.11.8-.03.37-.06.8-.08,1.28-.02.48-.04,1-.05,1.55-.01.55-.02,1.07-.02,1.56v1.02c0,.52,0,.99.02,1.44.01.44.04.76.08.94-1.36.39-2.74.7-4.13.93-1.39.23-2.77.34-4.13.34-1.77,0-3.41-.23-4.9-.7-1.49-.46-2.78-1.14-3.86-2.04-1.08-.9-1.93-1.98-2.53-3.25-.61-1.27-.91-2.69-.91-4.28,0-1.96.32-3.67.97-5.15.65-1.47,1.55-2.7,2.69-3.68,1.14-.98,2.5-1.72,4.06-2.21,1.57-.49,3.26-.74,5.07-.74,1.57,0,2.92.16,4.06.48,1.14.32,2.27.78,3.38,1.38-.17.54-.32,1.06-.48,1.58-.15.52-.28,1.04-.39,1.58h-.43c-.66-.93-1.48-1.67-2.47-2.24Z" fill="#fff"/>
    <path d="M121.04,38.63c0-1.52.28-2.96.85-4.3.57-1.34,1.36-2.51,2.4-3.52,1.03-1.01,2.28-1.8,3.74-2.38,1.46-.58,3.09-.87,4.88-.87,1.65,0,3.18.23,4.61.68,1.42.45,2.66,1.13,3.71,2.04,1.05.91,1.88,2.06,2.49,3.45.61,1.39.91,3.01.91,4.87,0,1.55-.29,2.99-.88,4.33-.59,1.34-1.4,2.51-2.44,3.51-1.04,1-2.28,1.78-3.72,2.33-1.44.56-3.03.83-4.76.83-1.63,0-3.16-.2-4.59-.6-1.43-.4-2.68-1.05-3.74-1.95-1.06-.9-1.9-2.04-2.52-3.43s-.93-3.05-.93-4.99ZM139.56,37.95c0-1.34-.17-2.54-.49-3.6-.33-1.06-.79-1.96-1.38-2.7-.59-.74-1.3-1.31-2.13-1.72-.83-.4-1.75-.6-2.74-.6-1.05,0-1.99.25-2.83.76-.83.51-1.54,1.19-2.12,2.06-.58.87-1.02,1.88-1.31,3.04-.3,1.16-.45,2.41-.45,3.72,0,1.65.17,3.04.53,4.17.35,1.13.82,2.05,1.42,2.74.6.69,1.29,1.19,2.07,1.5.78.31,1.61.46,2.47.46.93,0,1.81-.2,2.66-.59.84-.39,1.58-.99,2.21-1.79.63-.8,1.13-1.82,1.51-3.06.38-1.24.57-2.7.57-4.39Z" fill="#fff"/>
    <path d="M156.45,36.53c0-1.71-.02-3.23-.06-4.56-.04-1.33-.1-2.66-.19-4,.35.04.73.08,1.14.11.41.03.88.05,1.39.05.68,0,1.44-.03,2.29-.08.84-.05,1.95-.08,3.31-.08,1.77,0,3.38.16,4.84.48,1.45.32,2.7.86,3.76,1.62,1.05.76,1.86,1.79,2.44,3.08.58,1.29.87,2.91.87,4.87,0,1.71-.28,3.26-.85,4.64-.57,1.38-1.34,2.56-2.32,3.54-.98.98-2.11,1.73-3.4,2.24-1.29.52-2.66.77-4.13.77-1.55,0-2.86-.01-3.96-.03-1.09-.02-2.04-.03-2.84-.03h-1.39c-.41,0-.79.02-1.14.06.08-1.28.14-2.58.19-3.91.04-1.33.06-2.85.06-4.56v-4.2ZM161.02,42.99v1.85c0,.6,0,1.14.02,1.64.01.49.02.81.02.96.31.02.68.04,1.11.06.43.02.97.03,1.61.03,2.33,0,4.17-.79,5.53-2.38,1.36-1.59,2.04-3.99,2.04-7.2,0-1.28-.17-2.42-.51-3.43-.34-1.01-.82-1.87-1.44-2.58-.62-.71-1.36-1.26-2.23-1.64-.87-.38-1.83-.57-2.91-.57-.74,0-1.34.02-1.81.05-.46.03-.93.07-1.41.11,0,.14,0,.46-.02.96-.01.49-.02,1.05-.02,1.67v10.48Z" fill="#fff"/>
    <path d="M188.54,31.97c-.04-1.33-.1-2.66-.19-4,.35.04.73.08,1.14.11.41.03.88.05,1.39.05s.98-.02,1.39-.05c.41-.03.79-.07,1.14-.11-.08,1.34-.14,2.67-.19,4-.04,1.33-.06,2.85-.06,4.56v4.2c0,1.71.02,3.23.06,4.56.04,1.33.1,2.63.19,3.91-.35-.04-.73-.06-1.14-.06h-2.78c-.41,0-.79.02-1.14.06.08-1.28.14-2.58.19-3.91.04-1.33.06-2.85.06-4.56v-4.2c0-1.71-.02-3.23-.06-4.56Z" fill="#fff"/>
    <path d="M212.14,29.48c-.95,0-1.72.28-2.32.83-.6.56-.9,1.21-.9,1.95s.23,1.39.7,1.87c.46.48,1.05.92,1.75,1.31.7.39,1.45.77,2.26,1.13.8.36,1.56.8,2.26,1.33.7.53,1.28,1.16,1.75,1.92.46.75.7,1.72.7,2.89,0,1.03-.2,1.97-.59,2.83-.39.86-.95,1.59-1.67,2.19-.72.61-1.58,1.07-2.58,1.39-1,.32-2.12.48-3.35.48-1.11,0-2.11-.12-2.98-.36-.88-.24-1.54-.53-1.99-.88.21-.72.38-1.38.53-1.98.14-.6.27-1.25.37-1.95h.59c.08.45.24.88.46,1.28.23.4.51.76.87,1.07.35.31.77.55,1.27.73.49.18,1.05.26,1.67.26,1.24,0,2.15-.31,2.74-.93s.88-1.36.88-2.23c0-.78-.23-1.42-.68-1.92-.45-.49-1.02-.93-1.7-1.31-.68-.38-1.42-.75-2.23-1.11-.8-.36-1.55-.8-2.23-1.31-.68-.51-1.25-1.15-1.7-1.9-.45-.75-.68-1.72-.68-2.89,0-1.07.19-2.02.57-2.84.38-.82.89-1.51,1.53-2.07.64-.56,1.38-.98,2.21-1.27.83-.29,1.72-.43,2.64-.43,1.11,0,2.09.13,2.92.4.83.27,1.55.64,2.15,1.11-.19.47-.35.93-.48,1.38-.13.44-.3,1-.51,1.68h-.46c-.66-1.77-1.91-2.66-3.74-2.66Z" fill="#fff"/>
  </g>
  <g>
    <g>
      <g>
        <path d="M72.31,34.71l-14.47-14.47-2.89-2.89v20.24h20.24l-2.88-2.88ZM57.84,34.71v-11.53l11.31,11.53h-11.31Z" fill="#fff"/>
        <polygon points="57.84 34.71 69.15 34.71 57.84 23.19 57.84 34.71" fill="none"/>
      </g>
      <path d="M37.68,0l-14.55,14.37v23.22h28.92V14.37L37.68,0ZM49.16,34.66h-23.13V14.46l11.61-11.53,11.53,11.53v20.2Z" fill="#fff"/>
      <polygon points="20.24 20.16 20.24 17.35 0 37.59 20.2 37.59 20.23 28.92 14.46 28.92 14.46 31.81 17.29 31.81 17.35 34.73 5.78 34.76 20.24 20.16" fill="#fff"/>
      <g>
        <path d="M75.19,40.52h-20.24v20.24l2.89-2.89,14.47-14.47,2.88-2.88ZM69.15,43.4l-11.31,11.53v-11.53h11.31Z" fill="#fff"/>
        <polygon points="57.84 43.4 69.15 43.4 57.84 54.93 57.84 43.4" fill="none"/>
      </g>
      <path d="M23.13,40.52v23.22l13.01,12.85v-2.89h0v-33.19h0s-13.01,0-13.01,0ZM33.26,70.84l-7.23-7.18v-20.2h7.23v27.38Z" fill="#fff"/>
      <path d="M39.04,40.52h0v36.24l13.01-13.01v-23.22h-13.01ZM49.16,63.66l-7.23,7.23v-27.43h7.23v20.2Z" fill="#fff"/>
      <polygon points="14.46 47.74 14.46 50.63 17.29 50.63 17.33 55.01 5.78 43.36 20.23 43.4 20.2 40.53 0 40.52 20.24 60.77 20.24 47.73 14.46 47.74" fill="#fff"/>
    </g>
    <g>
      <rect x="25.33" y="26.74" width="24.54" height="24.54" transform="translate(-16.57 38.01) rotate(-45)"/>
      <g>
        <path d="M38.39,51.58v-7.95h1.09v5.31l9.38-9.38h-10.48v-13.12l6.61,6.61-.77.77-4.74-4.74v9.38h12.03l-13.12,13.12Z" fill="#fff"/>
        <path d="M34.94,35.89v12.89l-9.77-9.77,3.11-3.11h6.66M35.99,34.84h-8.15l-4.17,4.17,12.32,12.32v-16.49h0Z" fill="#fff"/>
        <path d="M34.94,29.12v2.28h-2.44l2.44-2.28M35.99,26.69l-6.16,5.77h6.16v-5.77h0Z" fill="#fff"/>
      </g>
    </g>
  </g>
  <g>
    <path d="M230.08,38.52c0-1.73.29-3.28.86-4.64.57-1.36,1.38-2.5,2.41-3.44,1.03-.94,2.27-1.65,3.71-2.14,1.44-.49,3.02-.73,4.73-.73s3.32.24,4.76.73,2.68,1.2,3.71,2.14c1.03.94,1.84,2.09,2.41,3.44.57,1.36.86,2.9.86,4.64s-.29,3.28-.86,4.64c-.57,1.36-1.38,2.5-2.41,3.44-1.03.94-2.27,1.64-3.71,2.1-1.44.46-3.03.69-4.76.69s-3.29-.23-4.73-.69c-1.44-.46-2.68-1.16-3.71-2.1-1.03-.94-1.84-2.09-2.41-3.44-.57-1.36-.86-2.9-.86-4.64ZM250.46,38.52c0-1.69-.22-3.16-.66-4.39-.44-1.23-1.05-2.25-1.83-3.06-.78-.81-1.7-1.4-2.76-1.79-1.05-.39-2.2-.58-3.43-.58s-2.34.19-3.4.58c-1.05.39-1.97.98-2.75,1.79-.78.81-1.39,1.83-1.83,3.06-.44,1.23-.66,2.7-.66,4.39s.22,3.16.66,4.39c.44,1.23,1.05,2.25,1.83,3.06.78.81,1.7,1.4,2.75,1.79,1.05.39,2.19.58,3.4.58s2.37-.19,3.43-.58c1.05-.39,1.97-.98,2.76-1.79.78-.81,1.39-1.83,1.83-3.06.44-1.23.66-2.7.66-4.39Z" fill="#fff"/>
    <path d="M264.28,36.01c1.47,2.73,3.01,5.54,4.62,8.42.21-.39.51-.94.91-1.67.4-.72.86-1.56,1.38-2.49.52-.94,1.08-1.95,1.67-3.04.59-1.09,1.2-2.2,1.82-3.32.62-1.12,1.23-2.22,1.83-3.31.6-1.08,1.17-2.09,1.69-3.03h.41c.23,1.96.44,3.85.64,5.68.2,1.83.4,3.62.61,5.39.21,1.76.42,3.51.63,5.23.21,1.72.44,3.43.69,5.13-.25-.04-.5-.06-.74-.06h-1.47c-.24,0-.48.02-.74.06-.23-2.71-.46-5.35-.69-7.9-.23-2.55-.51-5.15-.85-7.8h-.06c-1.44,2.57-2.85,5.13-4.24,7.67-1.39,2.54-2.71,5.2-3.96,7.97h-.28c-1.25-2.57-2.56-5.15-3.93-7.73-1.37-2.58-2.74-5.22-4.12-7.91h-.06c-.15,1.27-.31,2.64-.49,4.12-.18,1.48-.34,2.94-.48,4.38-.15,1.44-.27,2.8-.38,4.07-.1,1.28-.16,2.32-.16,3.14-.33-.04-.7-.06-1.1-.06s-.76.02-1.1.06c.27-1.65.55-3.4.85-5.23.29-1.84.57-3.68.85-5.54.27-1.86.52-3.69.75-5.49.23-1.81.43-3.52.59-5.16h.53c1.44,2.9,2.9,5.71,4.37,8.45Z" fill="#fff"/>
    <path d="M295.69,41.04c-2.71-2.85-5.43-5.68-8.14-8.49-.02.57-.04,1.34-.06,2.3-.02.96-.03,2.26-.03,3.92,0,.43,0,.96.02,1.59.01.63.02,1.3.03,1.99,0,.69.03,1.4.05,2.11.02.71.04,1.38.06,1.99.02.61.04,1.15.06,1.61.02.46.04.77.06.93-.33-.04-.7-.06-1.1-.06-.42,0-.8.02-1.16.06.04-.2.09-.58.14-1.13.05-.55.1-1.21.14-1.97s.09-1.6.14-2.49c.05-.9.09-1.8.13-2.69.03-.9.06-1.78.08-2.63.02-.86.03-1.62.03-2.3,0-1.96,0-3.64-.02-5.05-.01-1.41-.04-2.46-.08-3.15h.5c1.27,1.35,2.63,2.79,4.09,4.33,1.45,1.54,2.89,3.06,4.32,4.56,1.43,1.5,2.79,2.92,4.07,4.25,1.28,1.34,2.4,2.47,3.37,3.41v-4.16c0-2.14-.02-4.23-.05-6.26-.03-2.03-.1-3.94-.2-5.74.42.1.77.15,1.06.15.25,0,.58-.05,1-.15-.04.45-.09,1.12-.14,2.02-.05.9-.1,1.86-.16,2.88-.05,1.02-.1,2.02-.14,3s-.06,1.76-.06,2.36v1.84c0,.69,0,1.42.02,2.17,0,.75.02,1.51.03,2.28.01.77.02,1.48.03,2.14.01.66.02,1.24.02,1.73v1.01h-.44c-2.4-2.71-4.96-5.49-7.67-8.34Z" fill="#fff"/>
    <path d="M310.02,31.92c-.05-1.3-.11-2.62-.17-3.96.27.04.53.08.78.11.25.03.5.05.75.05s.5-.02.75-.05c.25-.03.51-.07.78-.11-.06,1.35-.12,2.67-.17,3.96-.05,1.3-.08,2.62-.08,3.96v5.26c0,1.35.03,2.67.08,3.98.05,1.31.11,2.59.17,3.86-.48-.04-.99-.06-1.53-.06s-1.05.02-1.53.06c.06-1.26.12-2.55.17-3.86.05-1.31.08-2.63.08-3.98v-5.26c0-1.35-.03-2.67-.08-3.96Z" fill="#fff"/>
  </g>
</svg>